# Blender v2.78 (sub 0) OBJ File: ''
# www.blender.org
mtllib test.mtl
o Text
v 0.525865 0.324339 -0.004712
v 0.358865 0.161339 -0.004712
v 0.358865 0.151339 -0.004712
v 0.436865 0.151339 -0.004712
v 0.436865 -0.085661 -0.004712
v 0.437885 -0.105451 -0.004712
v 0.440944 -0.124230 -0.004712
v 0.446037 -0.141864 -0.004712
v 0.453161 -0.158216 -0.004712
v 0.462314 -0.173152 -0.004712
v 0.473490 -0.186536 -0.004712
v 0.486687 -0.198232 -0.004712
v 0.501902 -0.208105 -0.004712
v 0.519131 -0.216020 -0.004712
v 0.538370 -0.221841 -0.004712
v 0.559615 -0.225433 -0.004712
v 0.582865 -0.226661 -0.004712
v 0.590490 -0.226395 -0.004712
v 0.598782 -0.225619 -0.004712
v 0.607615 -0.224364 -0.004712
v 0.616865 -0.222661 -0.004712
v 0.626407 -0.220541 -0.004712
v 0.636115 -0.218036 -0.004712
v 0.645865 -0.215176 -0.004712
v 0.655532 -0.211994 -0.004712
v 0.664990 -0.208520 -0.004712
v 0.674115 -0.204786 -0.004712
v 0.682782 -0.200822 -0.004712
v 0.690865 -0.196661 -0.004712
v 0.690865 -0.113661 -0.004712
v 0.681926 -0.118931 -0.004712
v 0.673106 -0.123744 -0.004712
v 0.664396 -0.128098 -0.004712
v 0.655791 -0.131994 -0.004712
v 0.647283 -0.135431 -0.004712
v 0.638865 -0.138411 -0.004712
v 0.630530 -0.140931 -0.004712
v 0.622272 -0.142994 -0.004712
v 0.614084 -0.144598 -0.004712
v 0.605957 -0.145744 -0.004712
v 0.597887 -0.146431 -0.004712
v 0.589865 -0.146661 -0.004712
v 0.583144 -0.146335 -0.004712
v 0.576097 -0.145304 -0.004712
v 0.568896 -0.143489 -0.004712
v 0.561717 -0.140809 -0.004712
v 0.554732 -0.137184 -0.004712
v 0.548115 -0.132536 -0.004712
v 0.542040 -0.126783 -0.004712
v 0.536680 -0.119846 -0.004712
v 0.532209 -0.111645 -0.004712
v 0.528800 -0.102100 -0.004712
v 0.526628 -0.091132 -0.004712
v 0.525865 -0.078661 -0.004712
v 0.525865 0.151339 -0.004712
v 0.667865 0.151339 -0.004712
v 0.667865 0.231339 -0.004712
v 0.525865 0.231339 -0.004712
v 0.297865 0.203339 -0.004712
v 0.286197 0.209319 -0.004712
v 0.274684 0.214761 -0.004712
v 0.263318 0.219667 -0.004712
v 0.252087 0.224043 -0.004712
v 0.240981 0.227891 -0.004712
v 0.229990 0.231214 -0.004712
v 0.219103 0.234017 -0.004712
v 0.208309 0.236302 -0.004712
v 0.197599 0.238074 -0.004712
v 0.186962 0.239335 -0.004712
v 0.176387 0.240089 -0.004712
v 0.165865 0.240339 -0.004712
v 0.144047 0.239390 -0.004712
v 0.123652 0.236580 -0.004712
v 0.104771 0.231964 -0.004712
v 0.087495 0.225599 -0.004712
v 0.071912 0.217538 -0.004712
v 0.058115 0.207839 -0.004712
v 0.046193 0.196557 -0.004712
v 0.036235 0.183747 -0.004712
v 0.028334 0.169464 -0.004712
v 0.022578 0.153765 -0.004712
v 0.019058 0.136705 -0.004712
v 0.017865 0.118339 -0.004712
v 0.021997 0.089855 -0.004712
v 0.033421 0.064631 -0.004712
v 0.050677 0.042261 -0.004712
v 0.072309 0.022339 -0.004712
v 0.096858 0.004459 -0.004712
v 0.122865 -0.011786 -0.004712
v 0.148872 -0.026801 -0.004712
v 0.173421 -0.040994 -0.004712
v 0.195053 -0.054770 -0.004712
v 0.212309 -0.068536 -0.004712
v 0.223733 -0.082697 -0.004712
v 0.227865 -0.097661 -0.004712
v 0.227254 -0.105348 -0.004712
v 0.225476 -0.112411 -0.004712
v 0.222615 -0.118848 -0.004712
v 0.218754 -0.124661 -0.004712
v 0.213976 -0.129848 -0.004712
v 0.208365 -0.134411 -0.004712
v 0.202004 -0.138348 -0.004712
v 0.194976 -0.141661 -0.004712
v 0.187365 -0.144348 -0.004712
v 0.179254 -0.146411 -0.004712
v 0.170726 -0.147848 -0.004712
v 0.161865 -0.148661 -0.004712
v 0.152518 -0.148264 -0.004712
v 0.142504 -0.147068 -0.004712
v 0.131865 -0.145067 -0.004712
v 0.120643 -0.142253 -0.004712
v 0.108879 -0.138620 -0.004712
v 0.096615 -0.134161 -0.004712
v 0.083893 -0.128868 -0.004712
v 0.070754 -0.122735 -0.004712
v 0.057240 -0.115754 -0.004712
v 0.043393 -0.107920 -0.004712
v 0.029254 -0.099224 -0.004712
v 0.014865 -0.089661 -0.004712
v 0.014865 -0.185661 -0.004712
v 0.029068 -0.192769 -0.004712
v 0.042740 -0.199114 -0.004712
v 0.055974 -0.204723 -0.004712
v 0.068865 -0.209624 -0.004712
v 0.081506 -0.213844 -0.004712
v 0.093990 -0.217411 -0.004712
v 0.106412 -0.220353 -0.004712
v 0.118865 -0.222698 -0.004712
v 0.131443 -0.224473 -0.004712
v 0.144240 -0.225707 -0.004712
v 0.157350 -0.226427 -0.004712
v 0.170865 -0.226661 -0.004712
v 0.191633 -0.225572 -0.004712
v 0.211342 -0.222369 -0.004712
v 0.229849 -0.217145 -0.004712
v 0.247013 -0.209994 -0.004712
v 0.262691 -0.201010 -0.004712
v 0.276740 -0.190286 -0.004712
v 0.289018 -0.177916 -0.004712
v 0.299383 -0.163994 -0.004712
v 0.307693 -0.148614 -0.004712
v 0.313805 -0.131869 -0.004712
v 0.317576 -0.113853 -0.004712
v 0.318865 -0.094661 -0.004712
v 0.318291 -0.083454 -0.004712
v 0.316522 -0.072758 -0.004712
v 0.313490 -0.062458 -0.004712
v 0.309124 -0.052438 -0.004712
v 0.303356 -0.042586 -0.004712
v 0.296115 -0.032786 -0.004712
v 0.287333 -0.022923 -0.004712
v 0.276939 -0.012883 -0.004712
v 0.264865 -0.002551 -0.004712
v 0.251041 0.008187 -0.004712
v 0.235397 0.019445 -0.004712
v 0.217865 0.031339 -0.004712
v 0.199125 0.042391 -0.004712
v 0.182360 0.052589 -0.004712
v 0.167506 0.061996 -0.004712
v 0.154495 0.070673 -0.004712
v 0.143261 0.078683 -0.004712
v 0.133740 0.086089 -0.004712
v 0.125864 0.092954 -0.004712
v 0.119569 0.099339 -0.004712
v 0.114787 0.105308 -0.004712
v 0.111453 0.110923 -0.004712
v 0.109501 0.116246 -0.004712
v 0.108865 0.121339 -0.004712
v 0.109338 0.127188 -0.004712
v 0.110735 0.132710 -0.004712
v 0.113021 0.137871 -0.004712
v 0.116161 0.142636 -0.004712
v 0.120121 0.146970 -0.004712
v 0.124865 0.150839 -0.004712
v 0.130359 0.154209 -0.004712
v 0.136569 0.157043 -0.004712
v 0.143459 0.159308 -0.004712
v 0.150995 0.160969 -0.004712
v 0.159142 0.161991 -0.004712
v 0.167865 0.162339 -0.004712
v 0.176400 0.162045 -0.004712
v 0.185481 0.161150 -0.004712
v 0.195068 0.159636 -0.004712
v 0.205124 0.157488 -0.004712
v 0.215611 0.154686 -0.004712
v 0.226490 0.151214 -0.004712
v 0.237723 0.147055 -0.004712
v 0.249272 0.142191 -0.004712
v 0.261099 0.136605 -0.004712
v 0.273166 0.130279 -0.004712
v 0.285434 0.123196 -0.004712
v 0.297865 0.115339 -0.004712
v -0.067135 -0.087661 -0.004712
v -0.080116 -0.095866 -0.004712
v -0.093070 -0.103466 -0.004712
v -0.106010 -0.110442 -0.004712
v -0.118950 -0.116772 -0.004712
v -0.131903 -0.122435 -0.004712
v -0.144885 -0.127411 -0.004712
v -0.157908 -0.131678 -0.004712
v -0.170987 -0.135216 -0.004712
v -0.184135 -0.138004 -0.004712
v -0.197366 -0.140022 -0.004712
v -0.210695 -0.141247 -0.004712
v -0.224135 -0.141661 -0.004712
v -0.244905 -0.140704 -0.004712
v -0.264209 -0.137841 -0.004712
v -0.282041 -0.133083 -0.004712
v -0.298394 -0.126438 -0.004712
v -0.313261 -0.117919 -0.004712
v -0.326635 -0.107536 -0.004712
v -0.338509 -0.095298 -0.004712
v -0.348876 -0.081216 -0.004712
v -0.357729 -0.065301 -0.004712
v -0.365061 -0.047563 -0.004712
v -0.370865 -0.028013 -0.004712
v -0.375135 -0.006661 -0.004712
v -0.059135 -0.006661 -0.004712
v -0.060699 0.033071 -0.004712
v -0.065316 0.069275 -0.004712
v -0.072869 0.101964 -0.004712
v -0.083246 0.131154 -0.004712
v -0.096331 0.156858 -0.004712
v -0.112010 0.179089 -0.004712
v -0.130168 0.197863 -0.004712
v -0.150691 0.213191 -0.004712
v -0.173463 0.225089 -0.004712
v -0.198371 0.233571 -0.004712
v -0.225300 0.238650 -0.004712
v -0.254135 0.240339 -0.004712
v -0.284316 0.238450 -0.004712
v -0.312746 0.232895 -0.004712
v -0.339260 0.223839 -0.004712
v -0.363691 0.211450 -0.004712
v -0.385871 0.195895 -0.004712
v -0.405635 0.177339 -0.004712
v -0.422816 0.155950 -0.004712
v -0.437246 0.131895 -0.004712
v -0.448760 0.105339 -0.004712
v -0.457191 0.076450 -0.004712
v -0.462371 0.045395 -0.004712
v -0.464135 0.012339 -0.004712
v -0.462519 -0.018412 -0.004712
v -0.457709 -0.048420 -0.004712
v -0.449760 -0.077317 -0.004712
v -0.438728 -0.104735 -0.004712
v -0.424667 -0.130305 -0.004712
v -0.407635 -0.153661 -0.004712
v -0.387686 -0.174433 -0.004712
v -0.364876 -0.192253 -0.004712
v -0.339260 -0.206754 -0.004712
v -0.310894 -0.217568 -0.004712
v -0.279834 -0.224326 -0.004712
v -0.246135 -0.226661 -0.004712
v -0.227679 -0.226305 -0.004712
v -0.210237 -0.225235 -0.004712
v -0.193698 -0.223442 -0.004712
v -0.177950 -0.220920 -0.004712
v -0.162883 -0.217662 -0.004712
v -0.148385 -0.213661 -0.004712
v -0.134346 -0.208910 -0.004712
v -0.120654 -0.203401 -0.004712
v -0.107197 -0.197129 -0.004712
v -0.093866 -0.190087 -0.004712
v -0.080549 -0.182266 -0.004712
v -0.067135 -0.173661 -0.004712
v -0.373135 0.052339 -0.004712
v -0.369532 0.069438 -0.004712
v -0.364728 0.085214 -0.004712
v -0.358729 0.099636 -0.004712
v -0.351542 0.112673 -0.004712
v -0.343175 0.124292 -0.004712
v -0.333635 0.134464 -0.004712
v -0.322928 0.143157 -0.004712
v -0.311061 0.150339 -0.004712
v -0.298041 0.155980 -0.004712
v -0.283876 0.160048 -0.004712
v -0.268571 0.162511 -0.004712
v -0.252135 0.163339 -0.004712
v -0.236892 0.162454 -0.004712
v -0.222691 0.159839 -0.004712
v -0.209572 0.155558 -0.004712
v -0.197579 0.149673 -0.004712
v -0.186753 0.142246 -0.004712
v -0.177135 0.133339 -0.004712
v -0.168767 0.123016 -0.004712
v -0.161691 0.111339 -0.004712
v -0.155948 0.098371 -0.004712
v -0.151579 0.084173 -0.004712
v -0.148628 0.068808 -0.004712
v -0.147135 0.052339 -0.004712
v -0.671135 0.324339 -0.004712
v -0.838135 0.161339 -0.004712
v -0.838135 0.151339 -0.004712
v -0.760135 0.151339 -0.004712
v -0.760135 -0.085661 -0.004712
v -0.759115 -0.105451 -0.004712
v -0.756056 -0.124230 -0.004712
v -0.750963 -0.141864 -0.004712
v -0.743839 -0.158216 -0.004712
v -0.734686 -0.173152 -0.004712
v -0.723510 -0.186536 -0.004712
v -0.710313 -0.198232 -0.004712
v -0.695098 -0.208105 -0.004712
v -0.677869 -0.216020 -0.004712
v -0.658630 -0.221841 -0.004712
v -0.637384 -0.225433 -0.004712
v -0.614135 -0.226661 -0.004712
v -0.606510 -0.226395 -0.004712
v -0.598218 -0.225619 -0.004712
v -0.589385 -0.224364 -0.004712
v -0.580135 -0.222661 -0.004712
v -0.570593 -0.220541 -0.004712
v -0.560885 -0.218036 -0.004712
v -0.551135 -0.215176 -0.004712
v -0.541468 -0.211994 -0.004712
v -0.532010 -0.208520 -0.004712
v -0.522885 -0.204786 -0.004712
v -0.514218 -0.200822 -0.004712
v -0.506135 -0.196661 -0.004712
v -0.506135 -0.113661 -0.004712
v -0.515074 -0.118931 -0.004712
v -0.523894 -0.123744 -0.004712
v -0.532604 -0.128098 -0.004712
v -0.541209 -0.131994 -0.004712
v -0.549717 -0.135431 -0.004712
v -0.558135 -0.138411 -0.004712
v -0.566469 -0.140931 -0.004712
v -0.574728 -0.142994 -0.004712
v -0.582916 -0.144598 -0.004712
v -0.591042 -0.145744 -0.004712
v -0.599113 -0.146431 -0.004712
v -0.607135 -0.146661 -0.004712
v -0.613856 -0.146335 -0.004712
v -0.620903 -0.145304 -0.004712
v -0.628104 -0.143489 -0.004712
v -0.635283 -0.140809 -0.004712
v -0.642268 -0.137184 -0.004712
v -0.648885 -0.132536 -0.004712
v -0.654960 -0.126783 -0.004712
v -0.660320 -0.119846 -0.004712
v -0.664791 -0.111645 -0.004712
v -0.668200 -0.102100 -0.004712
v -0.670372 -0.091132 -0.004712
v -0.671135 -0.078661 -0.004712
v -0.671135 0.151339 -0.004712
v -0.529135 0.151339 -0.004712
v -0.529135 0.231339 -0.004712
v -0.671135 0.231339 -0.004712
vn -0.0000 0.0000 1.0000
usemtl None
s off
f 2//1 58//1 1//1
f 2//1 57//1 58//1
f 2//1 56//1 57//1
f 3//1 56//1 2//1
f 4//1 56//1 3//1
f 5//1 55//1 4//1
f 55//1 56//1 4//1
f 5//1 54//1 55//1
f 5//1 53//1 54//1
f 6//1 53//1 5//1
f 6//1 52//1 53//1
f 6//1 51//1 52//1
f 7//1 51//1 6//1
f 7//1 50//1 51//1
f 31//1 29//1 30//1
f 32//1 29//1 31//1
f 7//1 49//1 50//1
f 33//1 29//1 32//1
f 8//1 49//1 7//1
f 8//1 48//1 49//1
f 34//1 29//1 33//1
f 35//1 29//1 34//1
f 8//1 47//1 48//1
f 36//1 29//1 35//1
f 8//1 46//1 47//1
f 37//1 29//1 36//1
f 8//1 45//1 46//1
f 38//1 29//1 37//1
f 9//1 45//1 8//1
f 39//1 29//1 38//1
f 9//1 44//1 45//1
f 40//1 29//1 39//1
f 9//1 43//1 44//1
f 41//1 29//1 40//1
f 9//1 42//1 43//1
f 42//1 29//1 41//1
f 9//1 29//1 42//1
f 10//1 29//1 9//1
f 11//1 29//1 10//1
f 12//1 29//1 11//1
f 12//1 28//1 29//1
f 13//1 28//1 12//1
f 13//1 27//1 28//1
f 13//1 26//1 27//1
f 14//1 26//1 13//1
f 14//1 25//1 26//1
f 14//1 24//1 25//1
f 14//1 23//1 24//1
f 15//1 23//1 14//1
f 15//1 22//1 23//1
f 15//1 21//1 22//1
f 16//1 21//1 15//1
f 16//1 20//1 21//1
f 16//1 19//1 20//1
f 17//1 19//1 16//1
f 17//1 18//1 19//1
f 72//1 70//1 71//1
f 72//1 69//1 70//1
f 73//1 69//1 72//1
f 73//1 68//1 69//1
f 73//1 67//1 68//1
f 74//1 67//1 73//1
f 74//1 66//1 67//1
f 74//1 65//1 66//1
f 75//1 65//1 74//1
f 75//1 64//1 65//1
f 75//1 63//1 64//1
f 76//1 63//1 75//1
f 76//1 62//1 63//1
f 76//1 61//1 62//1
f 77//1 61//1 76//1
f 77//1 60//1 61//1
f 77//1 59//1 60//1
f 78//1 59//1 77//1
f 78//1 184//1 59//1
f 184//1 185//1 59//1
f 185//1 186//1 59//1
f 186//1 187//1 59//1
f 187//1 188//1 59//1
f 188//1 189//1 59//1
f 189//1 190//1 59//1
f 190//1 191//1 59//1
f 191//1 192//1 59//1
f 79//1 182//1 78//1
f 182//1 183//1 78//1
f 183//1 184//1 78//1
f 80//1 181//1 79//1
f 181//1 182//1 79//1
f 81//1 179//1 80//1
f 179//1 180//1 80//1
f 180//1 181//1 80//1
f 81//1 178//1 179//1
f 81//1 177//1 178//1
f 81//1 176//1 177//1
f 81//1 175//1 176//1
f 81//1 174//1 175//1
f 82//1 174//1 81//1
f 82//1 173//1 174//1
f 82//1 172//1 173//1
f 82//1 171//1 172//1
f 82//1 170//1 171//1
f 83//1 170//1 82//1
f 83//1 169//1 170//1
f 83//1 168//1 169//1
f 83//1 167//1 168//1
f 84//1 167//1 83//1
f 84//1 166//1 167//1
f 84//1 165//1 166//1
f 84//1 164//1 165//1
f 84//1 163//1 164//1
f 84//1 162//1 163//1
f 85//1 162//1 84//1
f 85//1 161//1 162//1
f 85//1 160//1 161//1
f 85//1 159//1 160//1
f 86//1 159//1 85//1
f 86//1 158//1 159//1
f 86//1 157//1 158//1
f 86//1 156//1 157//1
f 87//1 156//1 86//1
f 87//1 155//1 156//1
f 88//1 155//1 87//1
f 88//1 154//1 155//1
f 88//1 153//1 154//1
f 89//1 153//1 88//1
f 89//1 152//1 153//1
f 90//1 152//1 89//1
f 90//1 151//1 152//1
f 90//1 150//1 151//1
f 91//1 150//1 90//1
f 91//1 149//1 150//1
f 92//1 149//1 91//1
f 92//1 148//1 149//1
f 92//1 147//1 148//1
f 93//1 147//1 92//1
f 93//1 146//1 147//1
f 94//1 146//1 93//1
f 94//1 145//1 146//1
f 95//1 145//1 94//1
f 95//1 144//1 145//1
f 120//1 118//1 119//1
f 95//1 143//1 144//1
f 96//1 143//1 95//1
f 120//1 117//1 118//1
f 97//1 143//1 96//1
f 120//1 116//1 117//1
f 98//1 143//1 97//1
f 98//1 142//1 143//1
f 120//1 115//1 116//1
f 99//1 142//1 98//1
f 120//1 114//1 115//1
f 100//1 142//1 99//1
f 120//1 113//1 114//1
f 101//1 142//1 100//1
f 101//1 141//1 142//1
f 120//1 112//1 113//1
f 102//1 141//1 101//1
f 103//1 141//1 102//1
f 120//1 111//1 112//1
f 104//1 141//1 103//1
f 120//1 110//1 111//1
f 105//1 141//1 104//1
f 120//1 109//1 110//1
f 106//1 141//1 105//1
f 120//1 108//1 109//1
f 107//1 141//1 106//1
f 120//1 107//1 108//1
f 107//1 140//1 141//1
f 120//1 140//1 107//1
f 120//1 139//1 140//1
f 120//1 138//1 139//1
f 121//1 138//1 120//1
f 121//1 137//1 138//1
f 122//1 137//1 121//1
f 123//1 137//1 122//1
f 123//1 136//1 137//1
f 124//1 136//1 123//1
f 125//1 136//1 124//1
f 125//1 135//1 136//1
f 126//1 135//1 125//1
f 126//1 134//1 135//1
f 127//1 134//1 126//1
f 128//1 134//1 127//1
f 128//1 133//1 134//1
f 129//1 133//1 128//1
f 130//1 133//1 129//1
f 130//1 132//1 133//1
f 131//1 132//1 130//1
f 231//1 229//1 230//1
f 231//1 228//1 229//1
f 232//1 228//1 231//1
f 232//1 227//1 228//1
f 233//1 227//1 232//1
f 233//1 226//1 227//1
f 234//1 226//1 233//1
f 234//1 225//1 226//1
f 235//1 225//1 234//1
f 235//1 224//1 225//1
f 236//1 224//1 235//1
f 236//1 223//1 224//1
f 237//1 279//1 236//1
f 279//1 223//1 236//1
f 237//1 278//1 279//1
f 280//1 223//1 279//1
f 237//1 277//1 278//1
f 281//1 223//1 280//1
f 237//1 276//1 277//1
f 282//1 223//1 281//1
f 282//1 222//1 223//1
f 237//1 275//1 276//1
f 238//1 275//1 237//1
f 283//1 222//1 282//1
f 238//1 274//1 275//1
f 284//1 222//1 283//1
f 238//1 273//1 274//1
f 285//1 222//1 284//1
f 238//1 272//1 273//1
f 286//1 222//1 285//1
f 239//1 272//1 238//1
f 286//1 221//1 222//1
f 239//1 271//1 272//1
f 287//1 221//1 286//1
f 239//1 270//1 271//1
f 288//1 221//1 287//1
f 240//1 270//1 239//1
f 288//1 220//1 221//1
f 240//1 269//1 270//1
f 289//1 220//1 288//1
f 240//1 268//1 269//1
f 290//1 220//1 289//1
f 241//1 268//1 240//1
f 241//1 267//1 268//1
f 290//1 219//1 220//1
f 291//1 219//1 290//1
f 241//1 291//1 267//1
f 241//1 219//1 291//1
f 242//1 219//1 241//1
f 242//1 218//1 219//1
f 243//1 217//1 242//1
f 217//1 218//1 242//1
f 243//1 216//1 217//1
f 244//1 216//1 243//1
f 244//1 215//1 216//1
f 244//1 214//1 215//1
f 245//1 214//1 244//1
f 245//1 213//1 214//1
f 246//1 213//1 245//1
f 246//1 212//1 213//1
f 194//1 266//1 193//1
f 246//1 211//1 212//1
f 195//1 266//1 194//1
f 196//1 266//1 195//1
f 247//1 211//1 246//1
f 247//1 210//1 211//1
f 197//1 266//1 196//1
f 198//1 266//1 197//1
f 247//1 209//1 210//1
f 199//1 266//1 198//1
f 247//1 208//1 209//1
f 200//1 266//1 199//1
f 248//1 208//1 247//1
f 201//1 266//1 200//1
f 248//1 207//1 208//1
f 202//1 266//1 201//1
f 248//1 206//1 207//1
f 203//1 266//1 202//1
f 204//1 266//1 203//1
f 248//1 205//1 206//1
f 205//1 266//1 204//1
f 248//1 266//1 205//1
f 249//1 266//1 248//1
f 249//1 265//1 266//1
f 250//1 265//1 249//1
f 250//1 264//1 265//1
f 250//1 263//1 264//1
f 251//1 263//1 250//1
f 251//1 262//1 263//1
f 251//1 261//1 262//1
f 252//1 261//1 251//1
f 252//1 260//1 261//1
f 252//1 259//1 260//1
f 253//1 259//1 252//1
f 253//1 258//1 259//1
f 253//1 257//1 258//1
f 253//1 256//1 257//1
f 254//1 256//1 253//1
f 254//1 255//1 256//1
f 293//1 349//1 292//1
f 293//1 348//1 349//1
f 293//1 347//1 348//1
f 294//1 347//1 293//1
f 295//1 347//1 294//1
f 296//1 346//1 295//1
f 346//1 347//1 295//1
f 296//1 345//1 346//1
f 296//1 344//1 345//1
f 297//1 344//1 296//1
f 297//1 343//1 344//1
f 297//1 342//1 343//1
f 298//1 342//1 297//1
f 298//1 341//1 342//1
f 322//1 320//1 321//1
f 323//1 320//1 322//1
f 298//1 340//1 341//1
f 324//1 320//1 323//1
f 299//1 340//1 298//1
f 299//1 339//1 340//1
f 325//1 320//1 324//1
f 326//1 320//1 325//1
f 299//1 338//1 339//1
f 327//1 320//1 326//1
f 299//1 337//1 338//1
f 328//1 320//1 327//1
f 299//1 336//1 337//1
f 329//1 320//1 328//1
f 300//1 336//1 299//1
f 330//1 320//1 329//1
f 300//1 335//1 336//1
f 331//1 320//1 330//1
f 300//1 334//1 335//1
f 332//1 320//1 331//1
f 300//1 333//1 334//1
f 333//1 320//1 332//1
f 300//1 320//1 333//1
f 301//1 320//1 300//1
f 302//1 320//1 301//1
f 303//1 320//1 302//1
f 303//1 319//1 320//1
f 304//1 319//1 303//1
f 304//1 318//1 319//1
f 304//1 317//1 318//1
f 305//1 317//1 304//1
f 305//1 316//1 317//1
f 305//1 315//1 316//1
f 305//1 314//1 315//1
f 306//1 314//1 305//1
f 306//1 313//1 314//1
f 306//1 312//1 313//1
f 307//1 312//1 306//1
f 307//1 311//1 312//1
f 307//1 310//1 311//1
f 308//1 310//1 307//1
f 308//1 309//1 310//1
